<?xml version="1.0" standalone="no"?>
<svg xmlns:xlink="http://www.w3.org/1999/xlink" id="wave" style="transform:rotate(0deg); transition: 0.3s" viewBox="0 0 1440 490" version="1.1" xmlns="http://www.w3.org/2000/svg"><defs><linearGradient id="sw-gradient-0" x1="0" x2="0" y1="1" y2="0"><stop stop-color="rgba(71, 112.396, 238, 1)" offset="0%"/><stop stop-color="rgba(71, 203, 238, 1)" offset="100%"/></linearGradient></defs><path style="transform:translate(0, 0px); opacity:1" fill="url(#sw-gradient-0)" d="M0,0L80,57.2C160,114,320,229,480,302.2C640,376,800,408,960,359.3C1120,310,1280,180,1440,138.8C1600,98,1760,147,1920,196C2080,245,2240,294,2400,285.8C2560,278,2720,212,2880,179.7C3040,147,3200,147,3360,138.8C3520,131,3680,114,3840,114.3C4000,114,4160,131,4320,138.8C4480,147,4640,147,4800,147C4960,147,5120,147,5280,147C5440,147,5600,147,5760,187.8C5920,229,6080,310,6240,302.2C6400,294,6560,196,6720,171.5C6880,147,7040,196,7200,204.2C7360,212,7520,180,7680,179.7C7840,180,8000,212,8160,212.3C8320,212,8480,180,8640,138.8C8800,98,8960,49,9120,89.8C9280,131,9440,261,9600,277.7C9760,294,9920,196,10080,130.7C10240,65,10400,33,10560,81.7C10720,131,10880,261,11040,277.7C11200,294,11360,196,11440,147L11520,98L11520,490L11440,490C11360,490,11200,490,11040,490C10880,490,10720,490,10560,490C10400,490,10240,490,10080,490C9920,490,9760,490,9600,490C9440,490,9280,490,9120,490C8960,490,8800,490,8640,490C8480,490,8320,490,8160,490C8000,490,7840,490,7680,490C7520,490,7360,490,7200,490C7040,490,6880,490,6720,490C6560,490,6400,490,6240,490C6080,490,5920,490,5760,490C5600,490,5440,490,5280,490C5120,490,4960,490,4800,490C4640,490,4480,490,4320,490C4160,490,4000,490,3840,490C3680,490,3520,490,3360,490C3200,490,3040,490,2880,490C2720,490,2560,490,2400,490C2240,490,2080,490,1920,490C1760,490,1600,490,1440,490C1280,490,1120,490,960,490C800,490,640,490,480,490C320,490,160,490,80,490L0,490Z"/></svg>